<svg xmlns="http://www.w3.org/2000/svg" viewBox="0 0 792 612"><defs><style>.cls-1{fill:#fff;}.cls-2{fill:none;stroke:#000;stroke-miterlimit:10;stroke-width:1.5px;}.cls-17,.cls-24,.cls-26,.cls-3{font-size:21px;}.cls-3{font-family:Poppins-SemiBold, Poppins;font-weight:600;letter-spacing:0em;}.cls-4{letter-spacing:0em;}.cls-5{letter-spacing:-0.02em;}.cls-6{letter-spacing:0.02em;}.cls-26,.cls-7{letter-spacing:-0.01em;}.cls-8{letter-spacing:0em;}.cls-9{letter-spacing:0em;}.cls-10{letter-spacing:0.01em;}.cls-11{letter-spacing:0em;}.cls-12{letter-spacing:-0.01em;}.cls-13{letter-spacing:0em;}.cls-14{letter-spacing:0em;}.cls-15{letter-spacing:-0.01em;}.cls-16{letter-spacing:0.02em;}.cls-17,.cls-24,.cls-26,.cls-27{font-family:Poppins-Medium, Poppins;font-weight:500;}.cls-17{letter-spacing:-0.02em;}.cls-18{letter-spacing:0em;}.cls-19{letter-spacing:0.03em;}.cls-20{letter-spacing:0.03em;}.cls-21{letter-spacing:-0.01em;}.cls-22,.cls-24{letter-spacing:0em;}.cls-23{letter-spacing:-0.01em;}.cls-25{letter-spacing:0.01em;}.cls-27{font-size:23px;letter-spacing:0.03em;}</style></defs><g id="BKGD"><rect class="cls-1" x="0.25" y="0.25" width="791.5" height="611.5" rx="14.75"/><path d="M777,.5A14.51,14.51,0,0,1,791.5,15V597A14.51,14.51,0,0,1,777,611.5H15A14.51,14.51,0,0,1,.5,597V15A14.51,14.51,0,0,1,15,.5H777m0-.5H15A15,15,0,0,0,0,15V597a15,15,0,0,0,15,15H777a15,15,0,0,0,15-15V15A15,15,0,0,0,777,0Z"/></g><g id="GO_WW"><line class="cls-2" x1="396.4" y1="306" x2="396.4" y2="549.24"/><line class="cls-2" x1="390.36" y1="306" x2="173.12" y2="306"/><line class="cls-2" x1="397" y1="62.76" x2="397" y2="306"/><line class="cls-2" x1="620.28" y1="306" x2="403.03" y2="306"/><ellipse class="cls-1" cx="396" cy="306" rx="111.5" ry="73.5"/><path d="M396,234c60.65,0,110,32.3,110,72s-49.35,72-110,72-110-32.3-110-72,49.35-72,110-72m0-3c-62.41,0-113,33.58-113,75s50.59,75,113,75,113-33.58,113-75-50.59-75-113-75Z"/><ellipse class="cls-1" cx="395" cy="489" rx="104.5" ry="67.5"/><path d="M395,422c57.35,0,104,30.06,104,67s-46.65,67-104,67-104-30.06-104-67,46.65-67,104-67m0-1c-58,0-105,30.44-105,68s47,68,105,68,105-30.44,105-68-47-68-105-68Z"/><ellipse class="cls-1" cx="396" cy="124" rx="104.5" ry="67.5"/><path d="M396,57c57.35,0,104,30.06,104,67s-46.65,67-104,67-104-30.06-104-67,46.65-67,104-67m0-1c-58,0-105,30.44-105,68s47,68,105,68,105-30.44,105-68S454,56,396,56Z"/><ellipse class="cls-1" cx="144" cy="306" rx="104.5" ry="67.5"/><path d="M144,239c57.35,0,104,30.06,104,67s-46.65,67-104,67S40,342.94,40,306s46.65-67,104-67m0-1c-58,0-105,30.44-105,68s47,68,105,68,105-30.44,105-68-47-68-105-68Z"/><ellipse class="cls-1" cx="650" cy="306" rx="104.5" ry="67.5"/><path d="M650,239c57.35,0,104,30.06,104,67s-46.65,67-104,67-104-30.06-104-67,46.65-67,104-67m0-1c-58,0-105,30.44-105,68s47,68,105,68,105-30.44,105-68-47-68-105-68Z"/><text class="cls-3" transform="translate(345.11 274.35)">H<tspan class="cls-4" x="15.06" y="0">o</tspan><tspan class="cls-5" x="28.45" y="0">w</tspan><tspan class="cls-6" x="46.18" y="0"> </tspan><tspan class="cls-7" x="51.18" y="0">c</tspan><tspan class="cls-8" x="63.82" y="0">a</tspan><tspan class="cls-9" x="78.06" y="0">n</tspan><tspan class="cls-6" x="91.94" y="0"> </tspan><tspan class="cls-10" x="96.93" y="0">I</tspan><tspan class="cls-6" x="102.77" y="0"> </tspan><tspan class="cls-7"><tspan x="-17.68" y="28">c</tspan><tspan class="cls-4" x="-5.04" y="28">o</tspan><tspan class="cls-9" x="8.36" y="28">nn</tspan><tspan class="cls-11" x="36.12" y="28">e</tspan><tspan x="49.08" y="28">c</tspan><tspan class="cls-12" x="61.72" y="28">t</tspan><tspan class="cls-6" x="69.86" y="28"> </tspan><tspan class="cls-5" x="74.86" y="28">w</tspan><tspan class="cls-10" x="92.59" y="28">i</tspan><tspan class="cls-12" x="98.42" y="28">t</tspan><tspan class="cls-9" x="106.57" y="28">h</tspan><tspan class="cls-6" x="120.45" y="28"> </tspan></tspan><tspan class="cls-8"><tspan x="-17.64" y="56">p</tspan><tspan class="cls-11" x="-3.4" y="56">e</tspan><tspan class="cls-4" x="9.55" y="56">o</tspan><tspan x="22.95" y="56">p</tspan><tspan class="cls-10" x="37.19" y="56">l</tspan><tspan class="cls-11" x="43.03" y="56">e</tspan><tspan class="cls-6" x="55.98" y="56"> </tspan><tspan class="cls-10" x="60.98" y="56">i</tspan><tspan class="cls-9" x="66.82" y="56">n</tspan><tspan class="cls-6" x="80.7" y="56"> </tspan><tspan class="cls-13" x="85.7" y="56">m</tspan><tspan class="cls-14" x="107.71" y="56">y</tspan><tspan class="cls-6" x="120.41" y="56"> </tspan></tspan><tspan class="cls-10"><tspan x="29.8" y="84">li</tspan><tspan class="cls-15" x="41.47" y="84">f</tspan><tspan class="cls-11" x="48.72" y="84">e</tspan><tspan class="cls-16" x="61.68" y="84">?</tspan></tspan></text><text class="cls-17" transform="translate(322.8 497.35)">c<tspan class="cls-18" x="12.6" y="0">oo</tspan><tspan class="cls-19" x="39.39" y="0">k</tspan><tspan class="cls-20" x="51.03" y="0"> </tspan><tspan class="cls-21" x="56.49" y="0">t</tspan><tspan class="cls-18" x="64.3" y="0">o</tspan><tspan class="cls-22" x="77.7" y="0">g</tspan><tspan class="cls-23" x="91.94" y="0">e</tspan><tspan class="cls-21" x="104.89" y="0">t</tspan><tspan class="cls-11" x="112.7" y="0">h</tspan><tspan class="cls-23" x="126.33" y="0">e</tspan><tspan class="cls-7" x="139.29" y="0">r</tspan></text><text class="cls-24" transform="translate(581.2 312.35)">p<tspan class="cls-25" x="14.24" y="0">l</tspan><tspan x="19.78" y="0">a</tspan><tspan class="cls-9" x="34.02" y="0">y</tspan><tspan class="cls-20" x="46.24" y="0"> </tspan><tspan class="cls-21" x="51.7" y="0">t</tspan><tspan class="cls-18" x="59.51" y="0">o</tspan><tspan x="72.91" y="0">g</tspan><tspan class="cls-23" x="87.15" y="0">e</tspan><tspan class="cls-21" x="100.1" y="0">t</tspan><tspan class="cls-11" x="107.92" y="0">h</tspan><tspan class="cls-23" x="121.55" y="0">e</tspan><tspan class="cls-7" x="134.5" y="0">r</tspan></text><text class="cls-26" transform="translate(71.07 312.35)">r<tspan class="cls-23" x="8.06" y="0">e</tspan><tspan class="cls-22" x="21.02" y="0">ad</tspan><tspan class="cls-20" x="49.5" y="0"> </tspan><tspan class="cls-21" x="54.96" y="0">t</tspan><tspan class="cls-18" x="62.77" y="0">o</tspan><tspan class="cls-22" x="76.17" y="0">g</tspan><tspan class="cls-23" x="90.4" y="0">e</tspan><tspan class="cls-21" x="103.36" y="0">t</tspan><tspan class="cls-11" x="111.17" y="0">h</tspan><tspan class="cls-23" x="124.8" y="0">e</tspan><tspan x="137.76" y="0">r</tspan></text><text class="cls-27" transform="translate(389.29 132.83)">?</text></g></svg>